<svg width="142" height="24" viewBox="0 0 142 24" fill="none" xmlns="http://www.w3.org/2000/svg">
    <path
        d="M140.167 0V10.0392C139.603 9.29708 138.89 8.68443 138.075 8.24142C137.041 7.65573 135.874 7.35293 134.689 7.36274C133.441 7.34915 132.216 7.69751 131.157 8.36676C130.098 9.03601 129.25 9.99825 128.712 11.1401C128.05 12.5441 127.729 14.0888 127.776 15.6446C127.731 17.2109 128.045 18.7665 128.692 20.1895C129.223 21.337 130.07 22.3048 131.13 22.9767C132.19 23.6485 133.419 23.9958 134.669 23.9769C135.874 23.9917 137.061 23.6777 138.105 23.0679C138.898 22.6006 139.592 21.9794 140.147 21.2398V23.6941H142V0H140.167ZM139.45 19.6643C138.98 20.4393 138.321 21.0791 137.538 21.5226C136.749 21.988 135.85 22.2287 134.938 22.2195C134.221 22.2347 133.509 22.0896 132.853 21.7947C132.197 21.4997 131.613 21.062 131.143 20.5127C130.061 19.1255 129.532 17.3778 129.659 15.6143C129.527 13.8439 130.057 12.0881 131.143 10.6957C131.62 10.1666 132.205 9.74824 132.856 9.46934C133.508 9.19043 134.211 9.05753 134.918 9.0797C135.818 9.07124 136.705 9.30472 137.488 9.75639C138.266 10.198 138.926 10.8256 139.41 11.5844C139.897 12.33 140.153 13.2054 140.147 14.0993V17.0484C140.164 17.9698 139.922 18.877 139.45 19.6643Z"
        fill="#00C1FA" />
    <path
        d="M120.973 8.44345C119.742 7.7053 118.329 7.3375 116.899 7.38297C115.469 7.35832 114.058 7.72463 112.815 8.44345C111.638 9.14081 110.671 10.1498 110.016 11.3623C109.321 12.6915 108.978 14.181 109.02 15.685C108.983 17.1852 109.326 18.6699 110.016 19.9976C110.672 21.2173 111.643 22.2332 112.825 22.9366C114.071 23.6572 115.485 24.0236 116.919 23.9971C117.956 24.0234 118.991 23.8697 119.977 23.5426C120.806 23.2565 121.575 22.8183 122.248 22.2498C122.829 21.7641 123.318 21.1755 123.692 20.5127C124.011 19.9529 124.205 19.3288 124.26 18.6846H122.417C122.359 19.1052 122.221 19.5101 122.009 19.8764C121.746 20.3279 121.409 20.7309 121.013 21.0682C120.513 21.4669 119.946 21.7713 119.339 21.9671C118.573 22.2112 117.772 22.3272 116.969 22.3104C115.832 22.3382 114.71 22.0519 113.722 21.4823C112.798 20.9314 112.049 20.1258 111.56 19.1593C111.134 18.3246 110.879 17.4104 110.813 16.4728H124.469C124.477 16.3247 124.477 16.1764 124.469 16.0284C124.469 15.8264 124.469 15.6648 124.469 15.5335C124.491 14.1012 124.173 12.6846 123.543 11.4027C122.974 10.1936 122.084 9.16904 120.973 8.44345ZM111.58 12.2208C112.078 11.2605 112.83 10.4597 113.751 9.90792C114.723 9.32968 115.833 9.03599 116.959 9.05953C118.032 9.02586 119.091 9.31016 120.007 9.87762C120.824 10.4122 121.482 11.163 121.909 12.0491C122.315 12.8899 122.536 13.8099 122.557 14.7457H110.823C110.897 13.8632 111.144 13.0047 111.55 12.2208H111.58Z"
        fill="#00C1FA" />
    <path
        d="M96.5094 22.1488L90.5031 1.33319H87.3256V23.6941H89.0887V3.05015L95.1747 23.6941H97.874L103.94 3.07035V23.6941H105.703V1.33319H102.536L96.5094 22.1488Z"
        fill="#00C1FA" />
    <path d="M84.0684 1.33319H82.2456V23.6941H84.0684V1.33319Z" fill="black" />
    <path
        d="M78.4606 22.6437C78.3966 22.3748 78.3533 22.1013 78.3311 21.8256C78.3311 21.5125 78.3311 21.1894 78.3311 20.8157V12.4328C78.3604 11.428 78.0473 10.4435 77.4446 9.6453C76.8088 8.86722 75.9803 8.27464 75.0441 7.92834C72.7583 7.11054 70.2613 7.13557 67.9919 7.99904C67.0119 8.37981 66.1635 9.04344 65.5515 9.9079C64.951 10.7981 64.6473 11.8599 64.6849 12.9378H66.5078C66.4736 12.3808 66.5801 11.8242 66.8171 11.3206C67.0541 10.8169 67.4139 10.3829 67.8624 10.0594C68.9878 9.33565 70.3065 8.98285 71.6375 9.04941C72.8869 8.97166 74.1311 9.27035 75.2134 9.9079C75.6128 10.1685 75.9384 10.5299 76.1585 10.9566C76.3785 11.3833 76.4853 11.8607 76.4685 12.3419V12.554C76.4685 13.0388 76.0202 13.3822 75.1437 13.564C73.703 13.8648 72.2463 14.0806 70.7809 14.2104C69.6128 14.3068 68.4633 14.5651 67.3644 14.978C66.4932 15.2974 65.7249 15.8528 65.1431 16.5839C64.6056 17.3215 64.3316 18.2226 64.3662 19.1391C64.3386 20.0563 64.6003 20.9585 65.1133 21.7145C65.6183 22.4824 66.3405 23.0774 67.1851 23.4214C68.1988 23.8132 69.2779 24.0019 70.3626 23.9769C71.3182 23.9896 72.2708 23.8638 73.1914 23.6032C73.9695 23.3936 74.707 23.0521 75.3728 22.5932C75.8004 22.2687 76.1737 21.8765 76.4784 21.4317C76.4784 21.6135 76.4784 21.7751 76.4784 21.9266C76.5048 22.2148 76.5615 22.4992 76.6478 22.775C76.7265 22.9917 76.8163 23.2041 76.9167 23.4113C76.9688 23.5253 77.0322 23.6336 77.106 23.7345H78.9786C78.8867 23.6256 78.8066 23.5071 78.7395 23.381C78.6182 23.1472 78.5246 22.8998 78.4606 22.6437ZM75.6417 20.2097C75.0954 20.9073 74.3724 21.4414 73.55 21.7549C72.6221 22.1299 71.6303 22.3153 70.6315 22.3003C69.4692 22.3804 68.3108 22.0947 67.3146 21.4822C66.9454 21.2168 66.6485 20.8608 66.4517 20.4475C66.2549 20.0342 66.1645 19.5772 66.189 19.1189C66.1578 18.6482 66.2615 18.1785 66.4878 17.7663C66.714 17.3541 67.053 17.0171 67.464 16.7959C68.6392 16.2328 69.9112 15.907 71.2092 15.8365C72.3746 15.7254 73.4603 15.584 74.4564 15.4123C75.1366 15.3026 75.8041 15.1233 76.4486 14.877V17.7655C76.4655 18.6502 76.1805 19.5136 75.6417 20.2097Z"
        fill="black" />
    <path
        d="M59.6149 7.38297C58.8341 7.36325 58.0587 7.51843 57.3439 7.83746C56.7434 8.1107 56.207 8.51002 55.7701 9.00904C55.4742 9.36002 55.217 9.74271 55.0031 10.1503V7.59506H53.1504V23.6941H55.0031V14.3215C55.009 13.7451 55.086 13.1717 55.2322 12.6147C55.3828 12.0225 55.6284 11.4595 55.9593 10.9482C56.3047 10.4146 56.7731 9.97434 57.3239 9.66552C58.3959 9.15109 59.6116 9.03318 60.7604 9.33223C60.9755 9.39979 61.1826 9.49124 61.3779 9.60492L61.8859 7.78696C61.6486 7.67943 61.4018 7.59489 61.1488 7.53447C60.6465 7.41473 60.1306 7.36378 59.6149 7.38297Z"
        fill="black" />
    <path
        d="M48.0405 16.7353C48.0385 17.6401 47.8197 18.5309 47.403 19.331C46.9934 20.161 46.392 20.8782 45.6499 21.4216C44.8925 21.9704 43.981 22.2573 43.0502 22.2397C42.1646 22.2884 41.2882 22.036 40.56 21.5226C39.9613 21.0484 39.5199 20.4 39.295 19.6643C39.0438 18.8783 38.9193 18.0564 38.9265 17.2302V7.59503H37.0339V17.6948C37.0487 18.3795 37.1389 19.0605 37.3029 19.7249C37.4707 20.4469 37.7678 21.1316 38.1794 21.7448C38.6189 22.4118 39.2188 22.954 39.9225 23.3204C40.7949 23.7552 41.7601 23.9634 42.7315 23.9264C43.6334 23.9425 44.5275 23.7551 45.3493 23.3778C46.171 23.0005 46.8997 22.4427 47.4827 21.7448C47.6953 21.4872 47.8884 21.2137 48.0604 20.9267V23.6537H49.9131V7.59503H48.0405V16.7353Z"
        fill="black" />
    <path
        d="M30.2209 8.44344C28.9989 7.70931 27.5966 7.3416 26.1768 7.38296C24.7543 7.34474 23.3476 7.69348 22.1029 8.39294C20.9129 9.09229 19.9346 10.1087 19.274 11.332C18.5788 12.6612 18.2356 14.1507 18.278 15.6547C18.2414 17.1549 18.5843 18.6396 19.274 19.9673C19.9304 21.187 20.9013 22.2029 22.083 22.9063C23.3286 23.6269 24.743 23.9933 26.1768 23.9668C27.2458 24.0146 28.3146 23.871 29.3344 23.5426C30.1631 23.2565 30.9329 22.8183 31.6054 22.2498C32.1608 21.7572 32.6261 21.1692 32.98 20.5127C33.2918 19.9504 33.4819 19.3272 33.5378 18.6846H31.6951C31.6446 19.0885 31.5196 19.4791 31.3265 19.836C31.0634 20.2875 30.7266 20.6905 30.3304 21.0278C29.8302 21.4265 29.2634 21.7309 28.657 21.9266C27.8905 22.1708 27.0898 22.2868 26.2864 22.27C25.1499 22.2978 24.0275 22.0115 23.0392 21.4419C22.116 20.891 21.3664 20.0854 20.8777 19.1189C20.4426 18.2995 20.1749 17.3995 20.0908 16.4728H33.747C33.7547 16.3247 33.7547 16.1764 33.747 16.0284C33.747 15.8264 33.747 15.6648 33.747 15.5335C33.7687 14.1012 33.451 12.6846 32.8206 11.4027C32.2432 10.1897 31.3427 9.16472 30.2209 8.44344ZM20.8279 12.2208C21.3261 11.2605 22.0779 10.4597 22.9994 9.90791C23.9705 9.32967 25.0808 9.03598 26.2067 9.05953C27.2795 9.02585 28.3388 9.31015 29.2547 9.87761C30.0721 10.4122 30.7299 11.163 31.1572 12.0491C31.5627 12.8899 31.7836 13.8099 31.8046 14.7457H20.1008C20.1743 13.8632 20.4215 13.0047 20.8279 12.2208Z"
        fill="black" />
    <path d="M13.1681 22.2599L3.0181 1.33319H0V23.6941H1.81285V2.82796L11.913 23.6941H14.9809V1.33319H13.1681V22.2599Z"
        fill="black" />
</svg>